#!OML:ASF E:\motion texture\Top Level 1\Subject 1\Session 1\male.ASF
:FULLY-SPECIFIED
:DEGREES
570
root -25.6033 18.1925 3.33374 1207.67 -74.3693 -1208.55
lowerback 6.14541 3.18273 9.73875
upperback -1.8621 5.10355 4.63761
thorax -4.99504 2.21252 -1.077
lowerneck -21.0839 -4.86139 -5.96082
upperneck 17.8013 -6.29296 6.20958
head 9.4863 -2.66285 2.22403
rclavicle 1.38155e-014 7.17613e-014
rhumerus 13.7067 18.8999 -74.8326
rradius 83.5862
rwrist -10.9528
rhand -12.1487 -11.214
rfingers 7.12502
rthumb 13.9137 -40.7285
lclavicle 1.38155e-014 7.17613e-014
lhumerus -72.3157 -6.81705 75.8868
lradius 40.0016
lwrist -0.926439
lhand -5.23144 6.95791
lfingers 7.12502
lthumb 20.571 35.888
rfemur 6.02309 7.34241 39.3811
rtibia 19.9213
rfoot 889.809 -180.485
rtoes 12.3926
lfemur -95.7655 8.19728 -10.9317
ltibia 69.4112
lfoot 1272.34 9.64864
ltoes 1.29306
571
root -25.7411 18.1829 3.3323 1207.29 -74.3329 -1207.95
lowerback 5.93824 3.19638 9.85232
upperback -1.89297 5.10255 4.65566
thorax -4.90247 2.21104 -1.10694
lowerneck -21.0681 -4.89 -5.98831
upperneck 17.707 -6.33744 6.29128
head 9.45757 -2.67711 2.25024
rclavicle 1.05107e-014 4.57205e-014
rhumerus 13.369 18.7836 -74.8696
rradius 83.4488
rwrist -10.719
rhand -12.1467 -11.1875
rfingers 7.12502
rthumb 13.9156 -40.7019
lclavicle 1.05107e-014 4.57205e-014
lhumerus -72.0812 -7.04344 76.2382
lradius 40.2508
lwrist -0.883435
lhand -5.21837 6.91055
lfingers 7.12502
lthumb 20.5836 35.8392
rfemur 6.21662 7.26652 39.4222
rtibia 19.9905
rfoot 889.746 -180.331
rtoes 11.8192
lfemur -94.8577 8.22062 -10.8541
ltibia 71.0687
lfoot 1272.72 10.1767
ltoes 1.00902
572
root -25.8798 18.1719 3.33076 1207.03 -74.3054 -1207.45
lowerback 5.69889 3.2155 9.94328
upperback -1.93168 5.10285 4.66281
thorax -4.80057 2.21134 -1.13427
lowerneck -21.0369 -4.91901 -6.01831
upperneck 17.6127 -6.3848 6.38201
head 9.42682 -2.69234 2.27975
rclavicle -9.57894e-015 -3.73715e-014
rhumerus 12.935 18.6822 -74.9662
rradius 83.2911
rwrist -10.5048
rhand -12.1035 -11.1925
rfingers 7.12502
rthumb 13.9572 -40.704
lclavicle -9.57894e-015 -3.73715e-014
lhumerus -71.7758 -7.25587 76.5999
lradius 40.5052
lwrist -0.857394
lhand -5.23077 6.87927
lfingers 7.12502
lthumb 20.5717 35.8093
rfemur 6.39005 7.22321 39.4437
rtibia 20.0575
rfoot 889.674 -180.192
rtoes 11.2465
lfemur -93.807 8.27258 -10.7523
ltibia 72.8062
lfoot 1273.2 10.8241
ltoes 0.55614
573
root -26.0194 18.1593 3.329 1206.9 -74.2811 -1207.04
lowerback 5.41451 3.24039 10.019
upperback -1.9712 5.10284 4.65824
thorax -4.67399 2.21321 -1.16265
lowerneck -20.9988 -4.94661 -6.04561
upperneck 17.5168 -6.43265 6.47828
head 9.39458 -2.70729 2.31074
rclavicle -1.16041e-014 -2.54444e-014
rhumerus 12.4202 18.5935 -75.1214
rradius 83.1108
rwrist -10.3207
rhand -12.0558 -11.2161
rfingers 7.12502
rthumb 14.0032 -40.7245
lclavicle -1.16041e-014 -2.54444e-014
lhumerus -71.389 -7.44367 76.9543
lradius 40.76
lwrist -0.84157
lhand -5.26614 6.85947
lfingers 7.12502
lthumb 20.5377 35.7931
rfemur 6.54458 7.21287 39.452
rtibia 20.1213
rfoot 889.593 -180.067
rtoes 10.6841
lfemur -92.6208 8.3553 -10.621
ltibia 74.6295
lfoot 1273.78 11.5986
ltoes -0.0169585
574
root -26.1603 18.1452 3.32705 1206.87 -74.2603 -1206.71
lowerback 5.09522 3.26992 10.0784
upperback -2.01455 5.10272 4.645
thorax -4.53209 2.21626 -1.18896
lowerneck -20.9528 -4.97264 -6.07637
upperneck 17.4194 -6.47975 6.58374
head 9.36093 -2.72142 2.34568
rclavicle -1.96176e-014 -1.12512e-013
rhumerus 11.8306 18.5209 -75.3259
rradius 82.896
rwrist -10.1715
rhand -12.0122 -11.2453
rfingers 7.12502
rthumb 14.0452 -40.7507
lclavicle -1.96176e-014 -1.12512e-013
lhumerus -70.9245 -7.60511 77.3012
lradius 41.0068
lwrist -0.818422
lhand -5.31878 6.85117
lfingers 7.12502
lthumb 20.4871 35.7903
rfemur 6.67816 7.21822 39.4449
rtibia 20.1909
rfoot 889.495 -179.951
rtoes 10.0751
lfemur -91.3019 8.46199 -10.4615
ltibia 76.5439
lfoot 1274.48 12.5143
ltoes -0.648364
575
root -26.3027 18.1297 3.32493 1206.94 -74.2411 -1206.47
lowerback 4.74707 3.3031 10.1231
upperback -2.06412 5.10254 4.62346
thorax -4.38079 2.22007 -1.21421
lowerneck -20.8987 -4.99595 -6.10274
upperneck 17.3306 -6.52489 6.6863
head 9.32861 -2.73493 2.3793
rclavicle -3.98874e-014 2.14687e-014
rhumerus 11.163 18.4701 -75.5765
rradius 82.6411
rwrist -10.0552
rhand -11.9795 -11.2862
rfingers 7.12502
rthumb 14.0768 -40.7895
lclavicle -3.98874e-014 2.14687e-014
lhumerus -70.3945 -7.73498 77.6322
lradius 41.2428
lwrist -0.782716
lhand -5.38985 6.85001
lfingers 7.12502
lthumb 20.4188 35.7964
rfemur 6.80476 7.24395 39.4253
rtibia 20.2553
rfoot 889.381 -179.843
rtoes 9.4631
lfemur -89.8471 8.58984 -10.2782
ltibia 78.5563
lfoot 1275.31 13.6225
ltoes -1.25343
576
root -26.4466 18.1126 3.32269 1207.11 -74.2208 -1206.31
lowerback 4.37602 3.3395 10.1551
upperback -2.11669 5.10249 4.59638
thorax -4.22015 2.22471 -1.2368
lowerneck -20.8439 -5.01599 -6.1231
upperneck 17.2502 -6.56582 6.77971
head 9.29829 -2.74715 2.4094
rclavicle -1.10015e-014 5.78463e-014
rhumerus 10.4254 18.44 -75.8683
rradius 82.3388
rwrist -9.96456
rhand -11.9609 -11.3408
rfingers 7.12502
rthumb 14.0947 -40.8428
lclavicle -1.10015e-014 5.78463e-014
lhumerus -69.7981 -7.82772 77.947
lradius 41.4651
lwrist -0.729977
lhand -5.47534 6.85749
lfingers 7.12502
lthumb 20.3366 35.8127
rfemur 6.93287 7.28566 39.3947
rtibia 20.3135
rfoot 889.251 -179.744
rtoes 8.83955
lfemur -88.2531 8.73662 -10.0761
ltibia 81.1075
lfoot 1277.83 32.7223
ltoes -1.73388
577
root -26.5927 18.0942 3.32041 1207.36 -74.2004 -1206.24
lowerback 3.99735 3.3769 10.1732
upperback -2.17386 5.10212 4.56436
thorax -4.06078 2.22943 -1.25646
lowerneck -20.7972 -5.03091 -6.13383
upperneck 17.1907 -6.59961 6.85563
head 9.27522 -2.75705 2.43287
rclavicle 1.27284e-014 -1.17283e-014
rhumerus 9.6184 18.4386 -76.1948
rradius 81.9894
rwrist -9.88979
rhand -11.9626 -11.412
rfingers 7.12502
rthumb 14.093 -40.9142
lclavicle 1.27284e-014 -1.17283e-014
lhumerus -69.1479 -7.88036 78.2445
lradius 41.6739
lwrist -0.662324
lhand -5.57926 6.87375
lfingers 7.12502
lthumb 20.2368 35.8396
rfemur 7.07188 7.33664 39.3502
rtibia 20.3699
rfoot 889.105 -179.653
rtoes 8.18078
lfemur -86.5091 8.89848 -9.86152
ltibia 84.141
lfoot 1281.72 51.6349
ltoes -1.9825
578
root -26.741 18.0745 3.31826 1207.71 -74.1825 -1206.27
lowerback 3.61614 3.41563 10.1747
upperback -2.23441 5.10257 4.52736
thorax -3.90437 2.23483 -1.27217
lowerneck -20.7515 -5.03999 -6.14326
upperneck 17.1446 -6.62441 6.92204
head 9.25595 -2.76363 2.4542
rclavicle -1.49461e-014 3.3197e-014
rhumerus 8.747 18.4652 -76.55
rradius 81.5851
rwrist -9.82249
rhand -11.976 -11.4988
rfingers 7.12502
rthumb 14.0801 -41.0018
lclavicle -1.49461e-014 3.3197e-014
lhumerus -68.4463 -7.89262 78.5286
lradius 41.8649
lwrist -0.588387
lhand -5.69566 6.91759
lfingers 7.12502
lthumb 20.1249 35.8952
rfemur 7.2316 7.39788 39.2861
rtibia 20.4178
rfoot 888.95 -179.563
rtoes 7.50498
lfemur -84.6116 9.07113 -9.64715
ltibia 86.8829
lfoot 1290.09 70.1883
ltoes -1.97383
579
root -26.8921 18.0535 3.3163 1208.14 -74.1665 -1206.38
lowerback 3.24333 3.45403 10.1596
upperback -2.30062 5.10367 4.48842
thorax -3.75988 2.2403 -1.28153
lowerneck -20.7056 -5.04158 -6.14399
upperneck 17.1141 -6.63776 6.96727
head 9.24008 -2.76652 2.46851
rclavicle 9.83984e-015 9.34288e-015
rhumerus 7.80449 18.5158 -76.935
rradius 81.1201
rwrist -9.74835
rhand -11.9942 -11.6036
rfingers 7.12502
rthumb 14.0626 -41.1078
lclavicle 9.83984e-015 9.34288e-015
lhumerus -67.706 -7.8611 78.8024
lradius 42.0383
lwrist -0.523565
lhand -5.83169 6.9788
lfingers 7.12502
lthumb 19.9941 35.9701
rfemur 7.42059 7.46751 39.2029
rtibia 20.4561
rfoot 888.794 -179.473
rtoes 6.85448
lfemur -82.5521 9.25055 -9.4352
ltibia 88.6395
lfoot 1360.29 85.3132
ltoes -1.69029
580
root -27.0465 18.0313 3.31474 1208.67 -74.1603 -1206.61
lowerback 2.87595 3.49059 10.1231
upperback -2.37172 5.10297 4.4437
thorax -3.62499 2.24493 -1.28572
lowerneck -20.6527 -5.03402 -6.14881
upperneck 17.0992 -6.63769 7.00749
head 9.22738 -2.76405 2.4839
rclavicle 1.1368e-014 2.78299e-014
rhumerus 6.78514 18.5879 -77.357
rradius 80.5899
rwrist -9.64923
rhand -12.0139 -11.7264
rfingers 7.12502
rthumb 14.0436 -41.232
lclavicle 1.1368e-014 2.78299e-014
lhumerus -66.9322 -7.7921 79.0743
lradius 42.1905
lwrist -0.467041
lhand -5.98302 7.08688
lfingers 7.12502
lthumb 19.8487 36.0933
rfemur 7.6438 7.53439 39.0872
rtibia 20.4898
rfoot 888.644 -179.378
rtoes 6.15606
lfemur -80.3264 9.42644 -9.2378
ltibia 88.9571
lfoot 1445.6 71.7132
ltoes -1.13772
581
root -27.2047 18.008 3.31373 1209.26 -74.1636 -1206.93
lowerback 2.51557 3.5253 10.0699
upperback -2.44712 5.10097 4.39454
thorax -3.49971 2.24881 -1.28589
lowerneck -20.5912 -5.01765 -6.15056
upperneck 17.0941 -6.62431 7.03327
head 9.21489 -2.75689 2.49591
rclavicle -1.0871e-014 -3.63776e-014
rhumerus 5.69115 18.6673 -77.8159
rradius 79.9832
rwrist -9.51389
rhand -12.0232 -11.8493
rfingers 7.12502
rthumb 14.0347 -41.3555
lclavicle -1.0871e-014 -3.63776e-014
lhumerus -66.1247 -7.68587 79.3468
lradius 42.3179
lwrist -0.436377
lhand -6.17798 7.19895
lfingers 7.12502
lthumb 19.6613 36.2247
rfemur 7.89795 7.59032 38.9364
rtibia 20.524
rfoot 888.506 -179.272
rtoes 5.429
lfemur -77.9311 9.58822 -9.04787
ltibia 87.7055
lfoot 1454.6 53.905
ltoes -0.363711
582
root -27.3669 17.9836 3.31338 1209.94 -74.1795 -1207.35
lowerback 2.16017 3.55848 9.99449
upperback -2.53039 5.09813 4.34067
thorax -3.38698 2.25209 -1.27944
lowerneck -20.5187 -4.99179 -6.15125
upperneck 17.0993 -6.59786 7.0513
head 9.20271 -2.74461 2.50717
rclavicle -1.01132e-014 -3.18055e-014
rhumerus 4.50967 18.7382 -78.3222
rradius 79.2994
rwrist -9.32858
rhand -12.0096 -11.9642
rfingers 7.12502
rthumb 14.0477 -41.4695
lclavicle -1.01132e-014 -3.18055e-014
lhumerus -65.288 -7.54339 79.6256
lradius 42.4164
lwrist -0.426417
lhand -6.4 7.3148
lfingers 7.12502
lthumb 19.4478 36.3622
rfemur 8.17414 7.63634 38.7437
rtibia 20.5703
rfoot 888.387 -179.148
rtoes 4.71666
lfemur -75.3738 9.72379 -8.86833
ltibia 85.1157
lfoot 1458.52 36.0875
ltoes 0.509152
583
root -27.5335 17.9581 3.31363 1210.69 -74.1992 -1207.87
lowerback 1.79175 3.59162 9.91071
upperback -2.61508 5.09376 4.28104
thorax -3.26866 2.25492 -1.27345
lowerneck -20.4391 -4.95656 -6.14033
upperneck 17.1136 -6.56014 7.05627
head 9.19066 -2.72785 2.51379
rclavicle -4.13099e-014 1.61016e-014
rhumerus 3.2475 18.7902 -78.877
rradius 78.5362
rwrist -9.09658
rhand -11.9749 -12.0735
rfingers 7.12502
rthumb 14.0812 -41.5764
lclavicle -4.13099e-014 1.61016e-014
lhumerus -64.413 -7.36859 79.909
lradius 42.4823
lwrist -0.433566
lhand -6.65625 7.42365
lfingers 7.12502
lthumb 19.2014 36.4958
rfemur 8.46093 7.67464 38.5167
rtibia 20.6444
rfoot 888.294 -178.997
rtoes 4.03266
lfemur -72.6568 9.82319 -8.67874
ltibia 81.7544
lfoot 1460.89 18.2929
ltoes 1.48412
